<svg width="16" height="16" viewBox="0 0 16 16" fill="none" xmlns="http://www.w3.org/2000/svg">
<path opacity="0.16" d="M1.3335 13C1.3335 12.116 1.68469 11.2681 2.30981 10.643C2.93493 10.0179 3.78277 9.66669 4.66683 9.66669H11.3335C12.2176 9.66669 13.0654 10.0179 13.6905 10.643C14.3156 11.2681 14.6668 12.116 14.6668 13C14.6668 13.442 14.4912 13.866 14.1787 14.1785C13.8661 14.4911 13.4422 14.6667 13.0002 14.6667H3.00016C2.55814 14.6667 2.13421 14.4911 1.82165 14.1785C1.50909 13.866 1.3335 13.442 1.3335 13Z" fill="white"/>
<path d="M1.3335 13C1.3335 12.116 1.68469 11.2681 2.30981 10.643C2.93493 10.0179 3.78277 9.66669 4.66683 9.66669H11.3335C12.2176 9.66669 13.0654 10.0179 13.6905 10.643C14.3156 11.2681 14.6668 12.116 14.6668 13C14.6668 13.442 14.4912 13.866 14.1787 14.1785C13.8661 14.4911 13.4422 14.6667 13.0002 14.6667H3.00016C2.55814 14.6667 2.13421 14.4911 1.82165 14.1785C1.50909 13.866 1.3335 13.442 1.3335 13Z" stroke="white" stroke-width="1.5" stroke-linejoin="round"/>
<path d="M8 6.33337C9.38071 6.33337 10.5 5.21409 10.5 3.83337C10.5 2.45266 9.38071 1.33337 8 1.33337C6.61929 1.33337 5.5 2.45266 5.5 3.83337C5.5 5.21409 6.61929 6.33337 8 6.33337Z" stroke="white" stroke-width="1.5"/>
</svg>
